<mxGraphModel dx="0" dy="0" grid="1" gridSize="10" guides="1" tooltips="1" connect="1" arrows="1" fold="1" page="0" pageScale="1" background="none" math="0" shadow="0">
  <root>
    <mxCell id="0" />
    <mxCell id="1" parent="0" />
    <mxCell id="node3" parent="1" vertex="1" value="&lt;p style=&quot;margin:0px;margin-top:4px;text-align:center;&quot;&gt;&lt;b&gt;authority&lt;/b&gt;&lt;/p&gt;&lt;hr size=&quot;1&quot;/&gt;&lt;p style=&quot;margin:0 0 0 4px;line-height:1.6;&quot;&gt; name: varchar(255)&lt;/p&gt;&lt;hr size=&quot;1&quot;/&gt;&lt;p style=&quot;margin:0 0 0 4px;line-height:1.6;&quot;&gt; id: uuid&lt;/p&gt;" style="verticalAlign=top;align=left;overflow=fill;fontSize=14;fontFamily=Helvetica;html=1;rounded=0;shadow=0;comic=0;labelBackgroundColor=none;strokeWidth=1;">
      <mxGeometry x="213" y="-78" width="134" height="83" as="geometry" />
    </mxCell>
    <mxCell id="node2" parent="1" vertex="1" value="&lt;p style=&quot;margin:0px;margin-top:4px;text-align:center;&quot;&gt;&lt;b&gt;image_like&lt;/b&gt;&lt;/p&gt;&lt;hr size=&quot;1&quot;/&gt;&lt;p style=&quot;margin:0 0 0 4px;line-height:1.6;&quot;&gt; id_image_post: uuid&lt;br/&gt; id_user: uuid&lt;/p&gt;" style="verticalAlign=top;align=left;overflow=fill;fontSize=14;fontFamily=Helvetica;html=1;rounded=0;shadow=0;comic=0;labelBackgroundColor=none;strokeWidth=1;">
      <mxGeometry x="-110" y="322" width="140" height="82" as="geometry" />
    </mxCell>
    <mxCell id="node1" parent="1" vertex="1" value="&lt;p style=&quot;margin:0px;margin-top:4px;text-align:center;&quot;&gt;&lt;b&gt;image_post&lt;/b&gt;&lt;/p&gt;&lt;hr size=&quot;1&quot;/&gt;&lt;p style=&quot;margin:0 0 0 4px;line-height:1.6;&quot;&gt; post_description: varchar(255)&lt;br/&gt; image_url: varchar(255)&lt;br/&gt; id_user: uuid&lt;/p&gt;&lt;hr size=&quot;1&quot;/&gt;&lt;p style=&quot;margin:0 0 0 4px;line-height:1.6;&quot;&gt; id: uuid&lt;/p&gt;" style="verticalAlign=top;align=left;overflow=fill;fontSize=14;fontFamily=Helvetica;html=1;rounded=0;shadow=0;comic=0;labelBackgroundColor=none;strokeWidth=1;">
      <mxGeometry x="-177" y="120" width="194" height="131" as="geometry" />
    </mxCell>
    <mxCell id="node5" parent="1" vertex="1" value="&lt;p style=&quot;margin:0px;margin-top:4px;text-align:center;&quot;&gt;&lt;b&gt;role&lt;/b&gt;&lt;/p&gt;&lt;hr size=&quot;1&quot;/&gt;&lt;p style=&quot;margin:0 0 0 4px;line-height:1.6;&quot;&gt; name: varchar(255)&lt;/p&gt;&lt;hr size=&quot;1&quot;/&gt;&lt;p style=&quot;margin:0 0 0 4px;line-height:1.6;&quot;&gt; id: uuid&lt;/p&gt;" style="verticalAlign=top;align=left;overflow=fill;fontSize=14;fontFamily=Helvetica;html=1;rounded=0;shadow=0;comic=0;labelBackgroundColor=none;strokeWidth=1;">
      <mxGeometry x="33" y="-78" width="134" height="83" as="geometry" />
    </mxCell>
    <mxCell id="node0" parent="1" vertex="1" value="&lt;p style=&quot;margin:0px;margin-top:4px;text-align:center;&quot;&gt;&lt;b&gt;role_authority&lt;/b&gt;&lt;/p&gt;&lt;hr size=&quot;1&quot;/&gt;&lt;p style=&quot;margin:0 0 0 4px;line-height:1.6;&quot;&gt; role_id: uuid&lt;br/&gt; authority_id: uuid&lt;/p&gt;" style="verticalAlign=top;align=left;overflow=fill;fontSize=14;fontFamily=Helvetica;html=1;rounded=0;shadow=0;comic=0;labelBackgroundColor=none;strokeWidth=1;">
      <mxGeometry x="214" y="142" width="132" height="82" as="geometry" />
    </mxCell>
    <mxCell id="node4" parent="1" vertex="1" value="&lt;p style=&quot;margin:0px;margin-top:4px;text-align:center;&quot;&gt;&lt;b&gt;users&lt;/b&gt;&lt;/p&gt;&lt;hr size=&quot;1&quot;/&gt;&lt;p style=&quot;margin:0 0 0 4px;line-height:1.6;&quot;&gt; email: varchar(255)&lt;br/&gt; first_name: varchar(255)&lt;br/&gt; last_name: varchar(255)&lt;br/&gt; password: varchar(255)&lt;/p&gt;&lt;hr size=&quot;1&quot;/&gt;&lt;p style=&quot;margin:0 0 0 4px;line-height:1.6;&quot;&gt; id: uuid&lt;/p&gt;" style="verticalAlign=top;align=left;overflow=fill;fontSize=14;fontFamily=Helvetica;html=1;rounded=0;shadow=0;comic=0;labelBackgroundColor=none;strokeWidth=1;">
      <mxGeometry x="-161" y="-111" width="162" height="143" as="geometry" />
    </mxCell>
    <mxCell id="node6" parent="1" vertex="1" value="&lt;p style=&quot;margin:0px;margin-top:4px;text-align:center;&quot;&gt;&lt;b&gt;users_role&lt;/b&gt;&lt;/p&gt;&lt;hr size=&quot;1&quot;/&gt;&lt;p style=&quot;margin:0 0 0 4px;line-height:1.6;&quot;&gt; users_id: uuid&lt;br/&gt; role_id: uuid&lt;/p&gt;" style="verticalAlign=top;align=left;overflow=fill;fontSize=14;fontFamily=Helvetica;html=1;rounded=0;shadow=0;comic=0;labelBackgroundColor=none;strokeWidth=1;">
      <mxGeometry x="68" y="142" width="105" height="82" as="geometry" />
    </mxCell>
    <mxCell id="edge1" edge="1" value="" parent="1" source="node2" target="node1" style="html=1;rounded=0;edgeStyle=orthogonalEdgeStyle;dashed=0;startArrow=none;endArrow=block;endSize=12;strokeColor=#595959;exitX=0.250;exitY=0.001;exitDx=0;exitDy=0;entryX=0.526;entryY=1.000;entryDx=0;entryDy=0;">
      <mxGeometry width="50" height="50" relative="1" as="geometry">
        <Array as="points" />
      </mxGeometry>
    </mxCell>
    <mxCell id="label8" parent="edge1" vertex="1" connectable="0" value="id_image_post:id" style="edgeLabel;resizable=0;html=1;align=left;verticalAlign=top;strokeColor=default;">
      <mxGeometry x="-175" y="271" as="geometry" />
    </mxCell>
    <mxCell id="edge0" edge="1" value="" parent="1" source="node2" target="node4" style="html=1;rounded=0;edgeStyle=orthogonalEdgeStyle;dashed=0;startArrow=none;endArrow=block;endSize=12;strokeColor=#595959;exitX=0.750;exitY=0.001;exitDx=0;exitDy=0;entryX=0.500;entryY=1.000;entryDx=0;entryDy=0;">
      <mxGeometry width="50" height="50" relative="1" as="geometry">
        <Array as="points">
          <mxPoint x="-5" y="300" />
          <mxPoint x="40" y="300" />
          <mxPoint x="40" y="100" />
          <mxPoint x="-80" y="100" />
        </Array>
      </mxGeometry>
    </mxCell>
    <mxCell id="label2" parent="edge0" vertex="1" connectable="0" value="id_user:id" style="edgeLabel;resizable=0;html=1;align=left;verticalAlign=top;strokeColor=default;">
      <mxGeometry x="-19" y="257" as="geometry" />
    </mxCell>
    <mxCell id="edge4" edge="1" value="" parent="1" source="node1" target="node4" style="html=1;rounded=0;edgeStyle=orthogonalEdgeStyle;dashed=0;startArrow=none;endArrow=block;endSize=12;strokeColor=#595959;exitX=0.222;exitY=0.000;exitDx=0;exitDy=0;entryX=0.167;entryY=1.000;entryDx=0;entryDy=0;">
      <mxGeometry width="50" height="50" relative="1" as="geometry">
        <Array as="points" />
      </mxGeometry>
    </mxCell>
    <mxCell id="label26" parent="edge4" vertex="1" connectable="0" value="id_user:id" style="edgeLabel;resizable=0;html=1;align=left;verticalAlign=top;strokeColor=default;">
      <mxGeometry x="-193" y="66" as="geometry" />
    </mxCell>
    <mxCell id="edge2" edge="1" value="" parent="1" source="node0" target="node3" style="html=1;rounded=0;edgeStyle=orthogonalEdgeStyle;dashed=0;startArrow=none;endArrow=block;endSize=12;strokeColor=#595959;exitX=0.750;exitY=0.000;exitDx=0;exitDy=0;entryX=0.746;entryY=1.000;entryDx=0;entryDy=0;">
      <mxGeometry width="50" height="50" relative="1" as="geometry">
        <Array as="points" />
      </mxGeometry>
    </mxCell>
    <mxCell id="label14" parent="edge2" vertex="1" connectable="0" value="authority_id:id" style="edgeLabel;resizable=0;html=1;align=left;verticalAlign=top;strokeColor=default;">
      <mxGeometry x="233" y="60" as="geometry" />
    </mxCell>
    <mxCell id="edge6" edge="1" value="" parent="1" source="node0" target="node5" style="html=1;rounded=0;edgeStyle=orthogonalEdgeStyle;dashed=0;startArrow=none;endArrow=block;endSize=12;strokeColor=#595959;exitX=0.250;exitY=0.001;exitDx=0;exitDy=0;entryX=0.948;entryY=1.000;entryDx=0;entryDy=0;">
      <mxGeometry width="50" height="50" relative="1" as="geometry">
        <Array as="points">
          <mxPoint x="247" y="120" />
          <mxPoint x="160" y="120" />
        </Array>
      </mxGeometry>
    </mxCell>
    <mxCell id="label38" parent="edge6" vertex="1" connectable="0" value="role_id:id" style="edgeLabel;resizable=0;html=1;align=left;verticalAlign=top;strokeColor=default;">
      <mxGeometry x="192" y="121" as="geometry" />
    </mxCell>
    <mxCell id="edge3" edge="1" value="" parent="1" source="node6" target="node5" style="html=1;rounded=0;edgeStyle=orthogonalEdgeStyle;dashed=0;startArrow=none;endArrow=block;endSize=12;strokeColor=#595959;exitX=0.750;exitY=0.000;exitDx=0;exitDy=0;entryX=0.845;entryY=1.000;entryDx=0;entryDy=0;">
      <mxGeometry width="50" height="50" relative="1" as="geometry">
        <Array as="points" />
      </mxGeometry>
    </mxCell>
    <mxCell id="label20" parent="edge3" vertex="1" connectable="0" value="role_id:id" style="edgeLabel;resizable=0;html=1;align=left;verticalAlign=top;strokeColor=default;">
      <mxGeometry x="91" y="36" as="geometry" />
    </mxCell>
    <mxCell id="edge5" edge="1" value="" parent="1" source="node6" target="node4" style="html=1;rounded=0;edgeStyle=orthogonalEdgeStyle;dashed=0;startArrow=none;endArrow=block;endSize=12;strokeColor=#595959;exitX=0.250;exitY=0.000;exitDx=0;exitDy=0;entryX=0.833;entryY=1.000;entryDx=0;entryDy=0;">
      <mxGeometry width="50" height="50" relative="1" as="geometry">
        <Array as="points">
          <mxPoint x="94" y="80" />
          <mxPoint x="-26" y="80" />
        </Array>
      </mxGeometry>
    </mxCell>
    <mxCell id="label32" parent="edge5" vertex="1" connectable="0" value="users_id:id" style="edgeLabel;resizable=0;html=1;align=left;verticalAlign=top;strokeColor=default;">
      <mxGeometry x="28" y="70" as="geometry" />
    </mxCell>
  </root>
</mxGraphModel>